<svg width="170" height="214" viewBox="0 0 170 214" fill="none" xmlns="http://www.w3.org/2000/svg">
<rect x="51.5373" y="6.4738" width="120" height="178" rx="10" transform="rotate(16 51.5373 6.4738)" fill="#B51A45"/>
<rect x="51.5373" y="6.4738" width="120" height="178" rx="10" transform="rotate(16 51.5373 6.4738)" stroke="white" stroke-width="4"/>
<rect x="27.0317" y="2.25888" width="120" height="178" rx="10" transform="rotate(8 27.0317 2.25888)" fill="#B51A45"/>
<rect x="27.0317" y="2.25888" width="120" height="178" rx="10" transform="rotate(8 27.0317 2.25888)" stroke="white" stroke-width="4"/>
<rect x="2.00006" y="2" width="120" height="178" rx="10" fill="#B51A45"/>
<rect x="2.00006" y="2" width="120" height="178" rx="10" stroke="white" stroke-width="4"/>
<path d="M45.5939 102.254L43.9623 97.3126L39.621 97.9228L39.478 103.113L34.9465 103.75L36.1699 81.1842L42.7928 80.2534L50.1253 101.617L45.5939 102.254ZM39.7209 93.8048L42.6996 93.3862L39.985 85.1074L39.7209 93.8048ZM47.896 77.7912L52.681 77.1187L56.0078 100.79L51.2228 101.463L47.896 77.7912ZM58.0446 80.8889C56.2912 81.1354 55.2987 80.4347 55.0671 78.7869C54.8326 77.1179 55.592 76.1603 57.3454 75.9138C59.12 75.6644 60.1246 76.3742 60.3591 78.0431C60.5907 79.6909 59.8192 80.6395 58.0446 80.8889ZM55.815 82.2687L60.5999 81.5962L63.1563 99.7854L58.3713 100.458L55.815 82.2687ZM68.6242 93.4912L68.7489 94.3785C68.8499 95.0967 69.2701 95.4039 70.0095 95.3C70.6432 95.2109 71.1551 95.0205 71.5449 94.7288L71.006 90.8944L69.6018 91.4796C69.0944 91.7017 68.7831 91.9393 68.6679 92.1925C68.5527 92.4456 68.5381 92.8785 68.6242 93.4912ZM63.113 81.1784C64.2185 80.6137 65.8487 80.1799 68.0035 79.8771C70.1583 79.5742 71.7673 79.8328 72.8304 80.6529C73.8906 81.4517 74.5543 82.8019 74.8215 84.7032L76.6742 97.8856L72.2061 98.5136L72.0146 97.151C71.5355 98.1877 70.5355 98.813 69.0144 99.0268C67.4934 99.2405 66.3444 99.0358 65.5674 98.4125C64.7875 97.7681 64.2847 96.6431 64.059 95.0376L63.9076 93.9602C63.7087 92.5448 63.8621 91.4137 64.3679 90.5671C64.8948 89.7175 65.8286 89.0046 67.1695 88.4284L70.4988 87.0557L70.2539 85.3128C70.1556 84.7665 69.9437 84.4085 69.6182 84.2388C69.2898 84.048 68.7348 84.0075 67.9531 84.1174C66.1997 84.3638 64.7838 84.789 63.7053 85.393L63.113 81.1784ZM76.1958 83.9284C75.9583 82.2383 76.2872 80.8995 77.1824 79.912C78.0959 78.9003 79.6934 78.2342 81.9749 77.9135C83.5382 77.6938 84.8492 77.6712 85.9077 77.8455L86.5001 82.0601C85.5049 81.8768 84.4369 81.8653 83.2961 82.0257C82.1764 82.183 81.4715 82.379 81.1814 82.6137C80.9123 82.8454 80.8075 83.1725 80.8669 83.595L80.9025 83.8485C80.9381 84.1021 81.0432 84.3135 81.2178 84.4828C81.4106 84.6281 81.7963 84.8432 82.3749 85.1281L85.1822 86.4785C86.0592 86.8938 86.7535 87.3887 87.265 87.9631C87.7978 88.5345 88.1309 89.2955 88.2645 90.2462L88.3759 91.0384C88.8687 94.5453 86.8124 96.6223 82.207 97.2696C80.6015 97.4952 79.209 97.5509 78.0296 97.4366L77.4284 93.1586C78.4629 93.3149 79.5822 93.3084 80.7864 93.1391C81.9905 92.9699 82.7694 92.7635 83.1229 92.5199C83.4946 92.2522 83.6523 91.9177 83.5959 91.5163L83.5558 91.2311C83.5112 90.9142 83.37 90.6756 83.132 90.5151C82.8429 90.2973 81.5094 89.6229 79.1315 88.4922C77.4891 87.689 76.5491 86.4423 76.3116 84.7523L76.1958 83.9284Z" fill="white"/>
</svg>
