<svg width="70" height="70" viewBox="0 0 70 70" fill="none" xmlns="http://www.w3.org/2000/svg">
<g clip-path="url(#clip0_17_595)">
<path d="M47.6297 52.6036C45.8782 49.1669 43.1474 46.5068 39.8939 45.1536V39.8899L39.9004 38.6412C39.8982 38.6412 39.8961 38.6412 39.8939 38.6418V38.6087C38.3096 38.918 36.6741 39.0846 35.0006 39.0846C33.4463 39.0846 31.9277 38.9351 30.4491 38.6669C30.3463 38.6462 30.2419 38.6311 30.1396 38.6087V38.6146C30.1287 38.6124 30.1177 38.6108 30.1068 38.6087V45.1536C28.4376 45.8478 26.9085 46.8892 25.5763 48.2014C25.5287 48.2479 25.4799 48.2917 25.4329 48.3387C25.2863 48.4866 25.1458 48.6421 25.0046 48.7964C24.9082 48.9017 24.8096 49.0032 24.7154 49.1116C24.632 49.2077 24.5535 49.3087 24.472 49.4063C24.3258 49.5826 24.1795 49.7583 24.0389 49.942C24.0269 49.958 24.0157 49.9745 24.0034 49.9905C23.4029 50.782 22.8541 51.6418 22.3711 52.5711H22.389C22.3831 52.5823 22.3767 52.593 22.3711 52.6036H47.6297Z" fill="black"/>
<path d="M15.7293 56.875V69.914L15.729 69.9669H15.7293V70H54.2718V56.875H15.7293Z" fill="black"/>
<path d="M68.1314 4.01775C67.0339 2.77443 65.4726 2.06104 63.8482 2.06104H57.3208V0.0369141V0.0330859V0H12.6798V2.0609H6.15239C4.52722 2.0609 2.96602 2.7743 1.86817 4.01762C0.534207 5.52918 -0.0415155 7.71504 0.242859 10.1808C0.293309 11.2638 0.83991 16.9232 6.69749 20.9501C10.0788 23.2754 13.318 24.3173 16.1912 24.7697C20.1572 30.9669 27.0959 35.0781 35.0005 35.0781C42.9035 35.0781 49.8424 30.9669 53.8086 24.7697C56.6819 24.3179 59.9211 23.2754 63.303 20.9501C69.16 16.9233 69.7072 11.2638 69.7576 10.1808C70.0417 7.71504 69.466 5.52918 68.1314 4.01775ZM65.1108 9.70922L65.0938 9.8257L65.0935 9.96666C65.0895 10.137 64.941 14.1579 60.6574 17.1027C59.4302 17.9465 58.2463 18.5682 57.0971 19.0419C56.8461 19.1391 56.5956 19.2374 56.3379 19.3212C56.9755 17.2453 57.3209 15.0423 57.3209 12.7576V6.73012H63.8484C64.0532 6.73012 64.3558 6.79588 64.6312 7.10719C65.0795 7.61564 65.2544 8.56365 65.1108 9.70922ZM34.7218 21.2213L30.1201 23.7821C29.9257 23.8905 29.6862 23.8762 29.5063 23.7446C29.3269 23.6149 29.2384 23.3911 29.2815 23.1731L30.2949 18.005C30.333 17.8112 30.2685 17.6109 30.1234 17.4769L26.2662 13.8908C26.1033 13.7396 26.0429 13.5073 26.1118 13.2958C26.1807 13.0843 26.366 12.9315 26.5868 12.9049L31.8144 12.2715C32.0107 12.2479 32.1805 12.1241 32.2643 11.9446L34.4817 7.16898C34.5757 6.96705 34.7773 6.83785 35.0006 6.83785C35.2228 6.83785 35.4247 6.96705 35.5183 7.16898L37.7359 11.9446C37.8196 12.1239 37.9894 12.2479 38.1856 12.2715L43.4132 12.9049C43.634 12.9315 43.8194 13.0843 43.8881 13.2958C43.957 13.5073 43.8967 13.7396 43.7341 13.8908L39.8765 17.4769C39.7317 17.6109 39.6658 17.8112 39.7043 18.005L40.7184 23.1731C40.7612 23.3911 40.6736 23.6147 40.4931 23.7446C40.3132 23.876 40.0748 23.8904 39.8798 23.7821L35.2773 21.2213C35.1053 21.1258 34.8949 21.1258 34.7218 21.2213ZM9.34231 17.1027C5.05946 14.1579 4.91126 10.137 4.90743 9.99113L4.90661 9.84963L4.8887 9.70922C4.7461 8.56365 4.92042 7.61578 5.3694 7.10732C5.64421 6.79602 5.94663 6.73025 6.15225 6.73025H12.6795V12.7576C12.6795 14.7053 12.9431 16.5885 13.4119 18.3894C13.4883 18.7049 13.559 19.0222 13.6477 19.3363C12.2682 18.84 10.8361 18.1292 9.34231 17.1027Z" fill="black"/>
</g>
<defs>
<clipPath id="clip0_17_595">
<rect width="70" height="70" fill="white"/>
</clipPath>
</defs>
</svg>
