<svg width="24" height="25" viewBox="0 0 24 25" fill="none" xmlns="http://www.w3.org/2000/svg">
<path d="M18.1154 10.8472H8.53615L11.4681 7.32563C11.6052 7.16068 11.6711 6.94803 11.6514 6.73446C11.6317 6.52088 11.528 6.32388 11.3631 6.18678C11.1981 6.04968 10.9855 5.98373 10.7719 6.00342C10.5583 6.02311 10.3613 6.12684 10.2242 6.29178L6.18577 11.1379C6.1586 11.1765 6.1343 11.217 6.11308 11.2591C6.11308 11.2995 6.11308 11.3237 6.05654 11.3641C6.01993 11.4567 6.00076 11.5553 6 11.6549C6.00076 11.7544 6.01993 11.853 6.05654 11.9456C6.05654 11.986 6.05654 12.0102 6.11308 12.0506C6.1343 12.0927 6.1586 12.1332 6.18577 12.1718L10.2242 17.0179C10.3002 17.1091 10.3953 17.1824 10.5028 17.2327C10.6103 17.2829 10.7275 17.3089 10.8462 17.3087C11.0349 17.3091 11.2178 17.2433 11.3631 17.1229C11.4449 17.0551 11.5125 16.9719 11.562 16.8779C11.6116 16.7839 11.6421 16.6811 11.6519 16.5753C11.6616 16.4695 11.6504 16.3628 11.6189 16.2614C11.5873 16.1599 11.5361 16.0657 11.4681 15.9841L8.53615 12.4626H18.1154C18.3296 12.4626 18.535 12.3775 18.6865 12.226C18.838 12.0745 18.9231 11.8691 18.9231 11.6549C18.9231 11.4406 18.838 11.2352 18.6865 11.0837C18.535 10.9323 18.3296 10.8472 18.1154 10.8472Z" fill="black"/>
</svg>
