<svg width="24" height="24" viewBox="0 0 24 24" fill="none" xmlns="http://www.w3.org/2000/svg">
<path d="M12 0C5.37097 0 0 5.37097 0 12C0 18.629 5.37097 24 12 24C18.629 24 24 18.629 24 12C24 5.37097 18.629 0 12 0ZM12 21.6774C6.65323 21.6774 2.32258 17.3468 2.32258 12C2.32258 6.65323 6.65323 2.32258 12 2.32258C17.3468 2.32258 21.6774 6.65323 21.6774 12C21.6774 17.3468 17.3468 21.6774 12 21.6774ZM16.6452 8.12903V15.871C16.6452 16.2968 16.2968 16.6452 15.871 16.6452H13.5484C13.1226 16.6452 12.7742 16.2968 12.7742 15.871V8.12903C12.7742 7.70323 13.1226 7.35484 13.5484 7.35484H15.871C16.2968 7.35484 16.6452 7.70323 16.6452 8.12903ZM11.2258 8.12903V15.871C11.2258 16.2968 10.8774 16.6452 10.4516 16.6452H8.12903C7.70323 16.6452 7.35484 16.2968 7.35484 15.871V8.12903C7.35484 7.70323 7.70323 7.35484 8.12903 7.35484H10.4516C10.8774 7.35484 11.2258 7.70323 11.2258 8.12903Z" fill="black"/>
</svg>
